<svg xmlns="http://www.w3.org/2000/svg" width="13.461" height="13.462" viewBox="0 0 13.461 13.462"><defs><style>.a{fill:#39b54a;}</style></defs><g transform="translate(0)"><path class="a" d="M13.073,4.172l-5.2,5.2v2.306a2.545,2.545,0,0,1-.24,1.073l-.118.224a.841.841,0,0,1-1.521.013l-.131-.25a2.534,2.534,0,0,1-.234-1.061V9.371l-5.2-5.2a1.392,1.392,0,0,1-.411-.991V2.524a.28.28,0,0,1,.432-.236L5.739,5.676c.052-.849.123-1.557.209-2.419l.089-.883-1.964-1.3A.281.281,0,0,1,3.947.842V.281A.281.281,0,0,1,4.288.007L6.751.555,9.215.007a.279.279,0,0,1,.236.055.283.283,0,0,1,.1.219V.842a.279.279,0,0,1-.126.234l-1.964,1.3.089.886c.086.861.157,1.569.209,2.417L13.05,2.289a.281.281,0,0,1,.432.236v.657A1.39,1.39,0,0,1,13.073,4.172Z" transform="translate(-0.021 0)"/></g></svg>