<svg xmlns="http://www.w3.org/2000/svg" width="40.307" height="40.307" viewBox="0 0 40.307 40.307"><defs><style>.a{fill:#00c3ff;}.b{fill:#00aaf0;}.c{fill:#fff;}.d{fill:#f2f2f2;}</style></defs><g transform="translate(0)"><path class="a" d="M32.041,40.307H8.266A8.275,8.275,0,0,1,0,32.041V8.266A8.275,8.275,0,0,1,8.266,0H32.041a8.275,8.275,0,0,1,8.266,8.266V32.041A8.275,8.275,0,0,1,32.041,40.307Z" transform="translate(0)"/><path class="b" d="M267.887,0H256V40.307h11.887a8.275,8.275,0,0,0,8.266-8.266V8.266A8.275,8.275,0,0,0,267.887,0Z" transform="translate(-235.847)"/><g transform="translate(6.731 8.267)"><path class="c" d="M114.675,363.638a1.969,1.969,0,0,1-2.689.72h0a1.97,1.97,0,0,1-.72-2.688l.387-.67H116.2Z" transform="translate(-108.995 -340.847)"/><path class="c" d="M87.468,123.586a1.968,1.968,0,0,1,0-3.936H91.34l5.31-9.2-1.439-2.493a1.97,1.97,0,0,1,.72-2.689h0a1.97,1.97,0,0,1,2.688.72l.3.525.3-.525a1.968,1.968,0,1,1,3.409,1.968l-6.749,11.69h4.257l2.273,3.936Z" transform="translate(-85.5 -105.007)"/></g><g transform="translate(20.153 8.267)"><path class="d" d="M278.091,205.724h-1.6l1.3,2.245a1.968,1.968,0,1,1-3.409,1.968L267.546,198.1l2.273-3.936,4.4,7.623h3.871a1.968,1.968,0,1,1,0,3.936Z" transform="translate(-266.637 -187.146)"/><path class="d" d="M256,291v3.936h3.492L257.22,291Z" transform="translate(-256 -276.358)"/><path class="d" d="M259.908,106.465a1.968,1.968,0,0,0-3.605-.475l-.3.525h0v7.872l3.712-6.429A1.955,1.955,0,0,0,259.908,106.465Z" transform="translate(-256 -105.006)"/></g></g></svg>