<svg xmlns="http://www.w3.org/2000/svg" width="8.761" height="12.627" viewBox="0 0 8.761 12.627"><defs><style>.a{fill:#39b54a;}</style></defs><g transform="translate(-4.847)"><path class="a" d="M7.481,12.627V10.283h3.494v2.344h2.633V0H4.847V12.627ZM10.975,1.16h1.474V2.634H10.975Zm0,2.143h1.474V4.777H10.975Zm0,2.143h1.474V6.919H10.975Zm0,2.142h1.474V9.062H10.975ZM8.491,1.16H9.965V2.634H8.491Zm0,2.143H9.965V4.777H8.491Zm0,2.143H9.965V6.919H8.491Zm0,2.142H9.965V9.062H8.491ZM6.007,1.16H7.481V2.634H6.007Zm0,2.143H7.481V4.777H6.007Zm0,2.143H7.481V6.919H6.007Zm0,2.142H7.481V9.062H6.007Z"/></g></svg>