<svg xmlns="http://www.w3.org/2000/svg" xmlns:xlink="http://www.w3.org/1999/xlink" width="62" height="40" viewBox="0 0 62 40"><defs><style>.a{fill:#fff;stroke:#000;opacity:0.3;}.b{clip-path:url(#a);}.c{fill:#f5f5f5;}.d{fill:#ff4b55;}.e{fill:#41479b;}</style><clipPath id="a"><rect class="a" width="62" height="40" rx="6"/></clipPath></defs><g class="b"><g transform="translate(0 0)"><path class="c" d="M66.827,50.526H1.172A1.118,1.118,0,0,1,0,49.474V11.579a1.118,1.118,0,0,1,1.172-1.053H66.828A1.118,1.118,0,0,1,68,11.579V49.474A1.118,1.118,0,0,1,66.827,50.526Z" transform="translate(0 -10.526)"/><path class="d" d="M68,13.6H0V11.579a1.118,1.118,0,0,1,1.172-1.053H66.828A1.118,1.118,0,0,1,68,11.579V13.6Z" transform="translate(0 -10.526)"/><rect class="d" width="68" height="3.077" transform="translate(0 12.308)"/><rect class="d" width="68" height="3.077" transform="translate(0 6.154)"/><path class="d" d="M68,32.065H1.172A1.118,1.118,0,0,1,0,31.012V28.988H68Z" transform="translate(0 -10.526)"/><rect class="d" width="68" height="3.077" transform="translate(0 30.77)"/><path class="d" d="M66.827,50.526H1.172A1.118,1.118,0,0,1,0,49.474V47.449H68v2.024A1.117,1.117,0,0,1,66.827,50.526Z" transform="translate(0 -10.526)"/><rect class="d" width="68" height="3.077" transform="translate(0 24.616)"/><path class="e" d="M27.368,10.526H1.053A1.053,1.053,0,0,0,0,11.579V31.012a1.053,1.053,0,0,0,1.053,1.053H27.368a1.053,1.053,0,0,0,1.053-1.053V11.579A1.053,1.053,0,0,0,27.368,10.526Z" transform="translate(0 -10.526)"/><g transform="translate(1.7 2.348)"><path class="c" d="M2.956,12.942l.233.7.737.006a.1.1,0,0,1,.058.179l-.593.438.222.7a.1.1,0,0,1-.152.111l-.6-.428-.6.428a.1.1,0,0,1-.152-.111l.222-.7-.593-.438a.1.1,0,0,1,.058-.179l.737-.006.233-.7A.1.1,0,0,1,2.956,12.942Z" transform="translate(-1.7 -12.875)"/><path class="c" d="M2.956,16.6l.233.7.737.006a.1.1,0,0,1,.058.179l-.593.438.222.7a.1.1,0,0,1-.152.111l-.6-.428-.6.428a.1.1,0,0,1-.152-.111l.222-.7-.593-.438A.1.1,0,0,1,1.8,17.3l.737-.006.233-.7A.1.1,0,0,1,2.956,16.6Z" transform="translate(-1.7 -12.875)"/><path class="c" d="M2.956,20.253l.233.7.737.006a.1.1,0,0,1,.058.179l-.593.438.222.7a.1.1,0,0,1-.152.111l-.6-.428-.6.428a.1.1,0,0,1-.152-.111l.222-.7-.593-.438a.1.1,0,0,1,.058-.179l.737-.006.233-.7A.1.1,0,0,1,2.956,20.253Z" transform="translate(-1.7 -12.875)"/><path class="c" d="M2.956,23.908l.233.7.737.006a.1.1,0,0,1,.058.179l-.593.438.222.7a.1.1,0,0,1-.152.111l-.6-.428-.6.428a.1.1,0,0,1-.152-.111l.222-.7-.593-.438a.1.1,0,0,1,.058-.179l.737-.006.233-.7A.1.1,0,0,1,2.956,23.908Z" transform="translate(-1.7 -12.875)"/><path class="c" d="M2.956,27.564l.233.7.737.006a.1.1,0,0,1,.058.179l-.593.438.222.7a.1.1,0,0,1-.152.111l-.6-.428-.6.428a.1.1,0,0,1-.152-.111l.222-.7-.593-.438a.1.1,0,0,1,.058-.179l.737-.006.233-.7A.1.1,0,0,1,2.956,27.564Z" transform="translate(-1.7 -12.875)"/><path class="c" d="M5.793,14.735l.233.7.737.006a.1.1,0,0,1,.058.179l-.593.438.222.7a.1.1,0,0,1-.152.111l-.6-.428-.6.428a.1.1,0,0,1-.152-.111l.222-.7-.593-.438a.1.1,0,0,1,.058-.179l.737-.006.233-.7A.1.1,0,0,1,5.793,14.735Z" transform="translate(-1.7 -12.875)"/><path class="c" d="M5.793,18.39l.233.7.737.006a.1.1,0,0,1,.058.179l-.593.438.222.7a.1.1,0,0,1-.152.111L5.7,20.1l-.6.428a.1.1,0,0,1-.152-.111l.222-.7-.593-.438a.1.1,0,0,1,.058-.179l.737-.006.233-.7A.1.1,0,0,1,5.793,18.39Z" transform="translate(-1.7 -12.875)"/><path class="c" d="M5.793,22.045l.233.7.737.006a.1.1,0,0,1,.058.179l-.593.438.222.7a.1.1,0,0,1-.152.111l-.6-.428-.6.428a.1.1,0,0,1-.152-.111l.222-.7-.593-.438a.1.1,0,0,1,.058-.179l.737-.006.233-.7A.1.1,0,0,1,5.793,22.045Z" transform="translate(-1.7 -12.875)"/><path class="c" d="M5.793,25.7l.233.7.737.006a.1.1,0,0,1,.058.179l-.593.438.222.7a.1.1,0,0,1-.152.111l-.6-.428-.6.428a.1.1,0,0,1-.152-.111l.222-.7-.593-.438a.1.1,0,0,1,.058-.179l.737-.006.233-.7A.1.1,0,0,1,5.793,25.7Z" transform="translate(-1.7 -12.875)"/><path class="c" d="M8.63,12.942l.233.7.737.006a.1.1,0,0,1,.058.179l-.593.438.222.7a.1.1,0,0,1-.152.111l-.6-.428-.6.428a.1.1,0,0,1-.152-.111l.222-.7-.593-.438a.1.1,0,0,1,.058-.179l.737-.006.233-.7A.1.1,0,0,1,8.63,12.942Z" transform="translate(-1.7 -12.875)"/><path class="c" d="M8.63,16.6l.233.7L9.6,17.3a.1.1,0,0,1,.058.179l-.593.438.222.7a.1.1,0,0,1-.152.111l-.6-.428-.6.428a.1.1,0,0,1-.152-.111l.222-.7-.593-.438a.1.1,0,0,1,.058-.179l.737-.006.233-.7A.1.1,0,0,1,8.63,16.6Z" transform="translate(-1.7 -12.875)"/><path class="c" d="M8.63,20.253l.233.7.737.006a.1.1,0,0,1,.058.179l-.593.438.222.7a.1.1,0,0,1-.152.111l-.6-.428-.6.428a.1.1,0,0,1-.152-.111l.222-.7-.593-.438a.1.1,0,0,1,.058-.179l.737-.006.233-.7A.1.1,0,0,1,8.63,20.253Z" transform="translate(-1.7 -12.875)"/><path class="c" d="M8.63,23.908l.233.7.737.006a.1.1,0,0,1,.058.179l-.593.438.222.7a.1.1,0,0,1-.152.111l-.6-.428-.6.428a.1.1,0,0,1-.152-.111l.222-.7-.593-.438a.1.1,0,0,1,.058-.179l.737-.006.233-.7A.1.1,0,0,1,8.63,23.908Z" transform="translate(-1.7 -12.875)"/><path class="c" d="M8.63,27.564l.233.7.737.006a.1.1,0,0,1,.058.179l-.593.438.222.7a.1.1,0,0,1-.152.111l-.6-.428-.6.428a.1.1,0,0,1-.152-.111l.222-.7-.593-.438a.1.1,0,0,1,.058-.179l.737-.006.233-.7A.1.1,0,0,1,8.63,27.564Z" transform="translate(-1.7 -12.875)"/><path class="c" d="M11.467,14.735l.233.7.737.006a.1.1,0,0,1,.058.179l-.593.438.222.7a.1.1,0,0,1-.152.111l-.6-.428-.6.428a.1.1,0,0,1-.152-.111l.222-.7-.593-.438a.1.1,0,0,1,.058-.179l.737-.006.233-.7A.1.1,0,0,1,11.467,14.735Z" transform="translate(-1.7 -12.875)"/><path class="c" d="M11.467,18.39l.233.7.737.006a.1.1,0,0,1,.058.179l-.593.438.222.7a.1.1,0,0,1-.152.111l-.6-.428-.6.428a.1.1,0,0,1-.152-.111l.222-.7-.593-.438a.1.1,0,0,1,.058-.179l.737-.006.233-.7A.1.1,0,0,1,11.467,18.39Z" transform="translate(-1.7 -12.875)"/><path class="c" d="M11.467,22.045l.233.7.737.006a.1.1,0,0,1,.058.179l-.593.438.222.7a.1.1,0,0,1-.152.111l-.6-.428-.6.428a.1.1,0,0,1-.152-.111l.222-.7-.593-.438a.1.1,0,0,1,.058-.179l.737-.006.233-.7A.1.1,0,0,1,11.467,22.045Z" transform="translate(-1.7 -12.875)"/><path class="c" d="M11.467,25.7l.233.7.737.006a.1.1,0,0,1,.058.179l-.593.438.222.7a.1.1,0,0,1-.152.111l-.6-.428-.6.428a.1.1,0,0,1-.152-.111l.222-.7-.593-.438a.1.1,0,0,1,.058-.179l.737-.006.233-.7A.1.1,0,0,1,11.467,25.7Z" transform="translate(-1.7 -12.875)"/><path class="c" d="M14.3,12.942l.233.7.737.006a.1.1,0,0,1,.058.179l-.593.438.222.7a.1.1,0,0,1-.152.111l-.6-.428-.6.428a.1.1,0,0,1-.152-.111l.222-.7-.593-.438a.1.1,0,0,1,.058-.179l.737-.006.233-.7A.1.1,0,0,1,14.3,12.942Z" transform="translate(-1.7 -12.875)"/><path class="c" d="M14.3,16.6l.233.7.737.006a.1.1,0,0,1,.058.179l-.593.438.222.7a.1.1,0,0,1-.152.111l-.6-.428-.6.428a.1.1,0,0,1-.152-.111l.222-.7-.593-.438a.1.1,0,0,1,.058-.179l.737-.006.233-.7A.1.1,0,0,1,14.3,16.6Z" transform="translate(-1.7 -12.875)"/><path class="c" d="M14.3,20.253l.233.7.737.006a.1.1,0,0,1,.058.179l-.593.438.222.7a.1.1,0,0,1-.152.111l-.6-.428-.6.428a.1.1,0,0,1-.152-.111l.222-.7-.593-.438a.1.1,0,0,1,.058-.179l.737-.006.233-.7A.1.1,0,0,1,14.3,20.253Z" transform="translate(-1.7 -12.875)"/><path class="c" d="M14.3,23.908l.233.7.737.006a.1.1,0,0,1,.058.179l-.593.438.222.7a.1.1,0,0,1-.152.111l-.6-.428-.6.428a.1.1,0,0,1-.152-.111l.222-.7-.593-.438a.1.1,0,0,1,.058-.179l.737-.006.233-.7A.1.1,0,0,1,14.3,23.908Z" transform="translate(-1.7 -12.875)"/><path class="c" d="M14.3,27.564l.233.7.737.006a.1.1,0,0,1,.058.179l-.593.438.222.7a.1.1,0,0,1-.152.111l-.6-.428-.6.428a.1.1,0,0,1-.152-.111l.222-.7-.593-.438a.1.1,0,0,1,.058-.179l.737-.006.233-.7A.1.1,0,0,1,14.3,27.564Z" transform="translate(-1.7 -12.875)"/><path class="c" d="M17.142,14.735l.233.7.737.006a.1.1,0,0,1,.058.179l-.593.438.222.7a.1.1,0,0,1-.152.111l-.6-.428-.6.428a.1.1,0,0,1-.152-.111l.222-.7-.593-.438a.1.1,0,0,1,.058-.179l.737-.006.233-.7A.1.1,0,0,1,17.142,14.735Z" transform="translate(-1.7 -12.875)"/><path class="c" d="M17.142,18.39l.233.7.737.006a.1.1,0,0,1,.058.179l-.593.438.222.7a.1.1,0,0,1-.152.111l-.6-.428-.6.428a.1.1,0,0,1-.152-.111l.222-.7-.593-.438a.1.1,0,0,1,.058-.179l.737-.006.233-.7A.1.1,0,0,1,17.142,18.39Z" transform="translate(-1.7 -12.875)"/><path class="c" d="M17.142,22.045l.233.7.737.006a.1.1,0,0,1,.058.179l-.593.438.222.7a.1.1,0,0,1-.152.111l-.6-.428-.6.428a.1.1,0,0,1-.152-.111l.222-.7-.593-.438a.1.1,0,0,1,.058-.179l.737-.006.233-.7A.1.1,0,0,1,17.142,22.045Z" transform="translate(-1.7 -12.875)"/><path class="c" d="M17.142,25.7l.233.7.737.006a.1.1,0,0,1,.058.179l-.593.438.222.7a.1.1,0,0,1-.152.111l-.6-.428-.6.428a.1.1,0,0,1-.152-.111l.222-.7-.593-.438a.1.1,0,0,1,.058-.179l.737-.006.233-.7A.1.1,0,0,1,17.142,25.7Z" transform="translate(-1.7 -12.875)"/><path class="c" d="M19.979,12.942l.233.7.737.006a.1.1,0,0,1,.058.179l-.593.438.222.7a.1.1,0,0,1-.152.111l-.6-.428-.6.428a.1.1,0,0,1-.152-.111l.222-.7-.593-.438a.1.1,0,0,1,.058-.179l.737-.006.233-.7A.1.1,0,0,1,19.979,12.942Z" transform="translate(-1.7 -12.875)"/><path class="c" d="M19.979,16.6l.233.7.737.006a.1.1,0,0,1,.058.179l-.593.438.222.7a.1.1,0,0,1-.152.111l-.6-.428-.6.428a.1.1,0,0,1-.152-.111l.222-.7-.593-.438a.1.1,0,0,1,.058-.179l.737-.006.233-.7A.1.1,0,0,1,19.979,16.6Z" transform="translate(-1.7 -12.875)"/><path class="c" d="M19.979,20.253l.233.7.737.006a.1.1,0,0,1,.058.179l-.593.438.222.7a.1.1,0,0,1-.152.111l-.6-.428-.6.428a.1.1,0,0,1-.152-.111l.222-.7-.593-.438a.1.1,0,0,1,.058-.179l.737-.006.233-.7A.1.1,0,0,1,19.979,20.253Z" transform="translate(-1.7 -12.875)"/><path class="c" d="M19.979,23.908l.233.7.737.006a.1.1,0,0,1,.058.179l-.593.438.222.7a.1.1,0,0,1-.152.111l-.6-.428-.6.428a.1.1,0,0,1-.152-.111l.222-.7-.593-.438a.1.1,0,0,1,.058-.179l.737-.006.233-.7A.1.1,0,0,1,19.979,23.908Z" transform="translate(-1.7 -12.875)"/><path class="c" d="M19.979,27.564l.233.7.737.006a.1.1,0,0,1,.058.179l-.593.438.222.7a.1.1,0,0,1-.152.111l-.6-.428-.6.428a.1.1,0,0,1-.152-.111l.222-.7-.593-.438a.1.1,0,0,1,.058-.179l.737-.006.233-.7A.1.1,0,0,1,19.979,27.564Z" transform="translate(-1.7 -12.875)"/><path class="c" d="M22.816,14.735l.233.7.737.006a.1.1,0,0,1,.058.179l-.593.438.222.7a.1.1,0,0,1-.152.111l-.6-.428-.6.428a.1.1,0,0,1-.152-.111l.222-.7-.593-.438a.1.1,0,0,1,.058-.179l.737-.006.233-.7A.1.1,0,0,1,22.816,14.735Z" transform="translate(-1.7 -12.875)"/><path class="c" d="M22.816,18.39l.233.7.737.006a.1.1,0,0,1,.058.179l-.593.438.222.7a.1.1,0,0,1-.152.111l-.6-.428-.6.428a.1.1,0,0,1-.152-.111l.222-.7-.593-.438a.1.1,0,0,1,.058-.179l.737-.006.233-.7A.1.1,0,0,1,22.816,18.39Z" transform="translate(-1.7 -12.875)"/><path class="c" d="M22.816,22.045l.233.7.737.006a.1.1,0,0,1,.058.179l-.593.438.222.7a.1.1,0,0,1-.152.111l-.6-.428-.6.428a.1.1,0,0,1-.152-.111l.222-.7-.593-.438a.1.1,0,0,1,.058-.179l.737-.006.233-.7A.1.1,0,0,1,22.816,22.045Z" transform="translate(-1.7 -12.875)"/><path class="c" d="M22.816,25.7l.233.7.737.006a.1.1,0,0,1,.058.179l-.593.438.222.7a.1.1,0,0,1-.152.111l-.6-.428-.6.428a.1.1,0,0,1-.152-.111l.222-.7-.593-.438a.1.1,0,0,1,.058-.179L22.4,26.4l.233-.7A.1.1,0,0,1,22.816,25.7Z" transform="translate(-1.7 -12.875)"/><path class="c" d="M25.653,12.942l.233.7.737.006a.1.1,0,0,1,.058.179l-.593.438.222.7a.1.1,0,0,1-.152.111l-.6-.428-.6.428a.1.1,0,0,1-.152-.111l.222-.7-.593-.438a.1.1,0,0,1,.058-.179l.737-.006.233-.7A.1.1,0,0,1,25.653,12.942Z" transform="translate(-1.7 -12.875)"/><path class="c" d="M25.653,16.6l.233.7.737.006a.1.1,0,0,1,.058.179l-.593.438.222.7a.1.1,0,0,1-.152.111l-.6-.428-.6.428a.1.1,0,0,1-.152-.111l.222-.7-.593-.438A.1.1,0,0,1,24.5,17.3l.737-.006.233-.7A.1.1,0,0,1,25.653,16.6Z" transform="translate(-1.7 -12.875)"/><path class="c" d="M25.653,20.253l.233.7.737.006a.1.1,0,0,1,.058.179l-.593.438.222.7a.1.1,0,0,1-.152.111l-.6-.428-.6.428a.1.1,0,0,1-.152-.111l.222-.7-.593-.438a.1.1,0,0,1,.058-.179l.737-.006.233-.7A.1.1,0,0,1,25.653,20.253Z" transform="translate(-1.7 -12.875)"/><path class="c" d="M25.653,23.908l.233.7.737.006a.1.1,0,0,1,.058.179l-.593.438.222.7a.1.1,0,0,1-.152.111l-.6-.428-.6.428a.1.1,0,0,1-.152-.111l.222-.7-.593-.438a.1.1,0,0,1,.058-.179l.737-.006.233-.7A.1.1,0,0,1,25.653,23.908Z" transform="translate(-1.7 -12.875)"/><path class="c" d="M25.653,27.564l.233.7.737.006a.1.1,0,0,1,.058.179l-.593.438.222.7a.1.1,0,0,1-.152.111l-.6-.428-.6.428a.1.1,0,0,1-.152-.111l.222-.7-.593-.438a.1.1,0,0,1,.058-.179l.737-.006.233-.7A.1.1,0,0,1,25.653,27.564Z" transform="translate(-1.7 -12.875)"/></g></g></g></svg>