<svg xmlns="http://www.w3.org/2000/svg" width="20.123" height="20.975" viewBox="0 0 20.123 20.975"><defs><style>.a{fill:#607d8b;}.b{fill:#ffc107;}.c{fill:#2196f3;}.d{fill:#f44336;}.e{fill:#4caf50;}</style></defs><g transform="translate(-10.395 0)"><path class="a" d="M405.771,238.613l-.009-.009" transform="translate(-379.163 -228.825)"/><path d="M395.671,228.977a.425.425,0,0,1-.3-.127l-.009-.009a.437.437,0,1,1,.311.135h0Z" transform="translate(-369.069 -218.752)"/><path class="b" d="M250.293,71a.456.456,0,0,0-.067-.234A28.122,28.122,0,0,0,243.9,63.94a.437.437,0,0,0-.65.558,15.206,15.206,0,0,1,1.807,6.958c0,.14,0,.273-.008.413a.443.443,0,0,0,.122.325.507.507,0,0,0,.042.038c.693.731,3.047,4.453,2.588,6.835a.437.437,0,0,0,.281.493.429.429,0,0,0,.149.026.437.437,0,0,0,.383-.226,18.689,18.689,0,0,0,1.689-7.9C250.3,71.3,250.3,71.142,250.293,71Z" transform="translate(-223.257 -61.231)"/><path class="c" d="M19.143,105.435c-.5-1.226-2.835-3.7-5.214-5.519a2.186,2.186,0,0,0-2.7,3.44q.053.042.109.08c3.471,2.125,5.5,7.021,5.333,8.036a.437.437,0,0,0,.33.5.42.42,0,0,0,.1.012.437.437,0,0,0,.417-.307,1.322,1.322,0,0,1,.17-.3,11.1,11.1,0,0,0,1.483-5.775A.447.447,0,0,0,19.143,105.435Z" transform="translate(0 -95.374)"/><path class="d" d="M164.954,39.913a2.186,2.186,0,0,0-4.1,1.506,1.616,1.616,0,0,0,.233.452,10.181,10.181,0,0,1,1.382,5.362,10.157,10.157,0,0,1-1.356,5.321,1.792,1.792,0,0,0-.251.47,2.186,2.186,0,0,0,2.956,2.752,2.093,2.093,0,0,0,1.105-1.161,16.293,16.293,0,0,0,1.908-6.92c.009-.157.01-.305.01-.462A16.01,16.01,0,0,0,164.954,39.913Z" transform="translate(-144.17 -37.009)"/><path class="e" d="M356.365,1.418A2.181,2.181,0,1,0,352.3,3a17.552,17.552,0,0,1,1.574,7.062c.008.141.008.281.008.421a17.785,17.785,0,0,1-1.607,7.54,2.186,2.186,0,0,0,2.956,2.752,2.093,2.093,0,0,0,1.105-1.161c1.062-1.909,1.917-6.557,1.917-9.131S357.4,3.264,356.365,1.418Z" transform="translate(-327.738 0)"/></g></svg>