<svg xmlns="http://www.w3.org/2000/svg" width="22.967" height="14.353" viewBox="0 0 22.967 14.353"><defs><style>.a{fill:#e2574c;}.b{fill:#f4b459;}</style></defs><g transform="translate(0 -54.719)"><path class="a" d="M14.349,61.9a7.174,7.174,0,1,1-7.174-7.176A7.174,7.174,0,0,1,14.349,61.9Z"/><path class="b" d="M116.607,54.719a7.135,7.135,0,0,0-4.287,1.431h.006a6.149,6.149,0,0,1,.7.649l-1.493.024a7.381,7.381,0,0,0-.648.76h2.632a6.67,6.67,0,0,1,.553.715H110.4a7.15,7.15,0,0,0-.367.715h4.447a6.114,6.114,0,0,1,.309.693h-5.019a6.914,6.914,0,0,0-.2.759H115c.053.248.094.478.122.712h-5.658c-.024.236-.036.476-.036.718h5.735a6.3,6.3,0,0,1-.044.718h-5.655q.037.365.108.718h5.42c-.056.233-.121.466-.2.709h-5.035a6.964,6.964,0,0,0,.27.716h4.457a6.535,6.535,0,0,1-.418.715H110.39a6.983,6.983,0,0,0,.479.721l2.644.039a6.985,6.985,0,0,1-.778.67c.014.011-.421,0-1.279-.015a7.175,7.175,0,1,0,5.151-12.167Z" transform="translate(-100.817)"/></g></svg>