<svg xmlns="http://www.w3.org/2000/svg" width="17.725" height="20.768" viewBox="0 0 17.725 20.768"><defs><style>.a{fill:#03a9f4;}.b{fill:#283593;}</style></defs><g transform="translate(-37.513 0)"><path class="a" d="M146.552,116.324a.432.432,0,0,0-.649.326c-.016.142-.04.284-.07.433-.847,3.845-2.548,5.715-5.2,5.715h-3.894a.433.433,0,0,0-.423.346l-1.3,6.084-.232,1.549a1.3,1.3,0,0,0,1.269,1.539h2.6a1.292,1.292,0,0,0,1.259-.986l1.052-4.206h2.258c2.664,0,4.506-2.124,5.185-5.982h0A4.522,4.522,0,0,0,146.552,116.324Z" transform="translate(-93.302 -111.548)"/><path class="b" d="M52.433,1.542A4.553,4.553,0,0,0,49.059,0H41.893a2.152,2.152,0,0,0-2.141,1.84L37.528,16.682a1.3,1.3,0,0,0,1.285,1.491h3.323a.433.433,0,0,0,.423-.346l1.224-5.711h3.548c3.079,0,5.113-2.152,6.048-6.4a5.1,5.1,0,0,0,.087-.513A4.468,4.468,0,0,0,52.433,1.542Z" transform="translate(0 0)"/></g></svg>