<svg xmlns="http://www.w3.org/2000/svg" width="23.425" height="23.442" viewBox="0 0 23.425 23.442"><defs><style>.a{fill:#fff;}</style></defs><g transform="translate(-0.008)"><path class="a" d="M23.434,4.5a13,13,0,0,1-1.618,6.257.7.7,0,0,1-1.189-.723A11.788,11.788,0,0,0,22.043,4.5,2.859,2.859,0,0,0,19.26,1.391a2.785,2.785,0,0,0-2.782,2.783,22,22,0,0,0,.438,2.9.7.7,0,0,1-1.362.285,22.871,22.871,0,0,1-.469-3.185A4.179,4.179,0,0,1,19.26,0,4.248,4.248,0,0,1,23.434,4.5ZM19.378,5.591c.277,2.312.677,6.816.217,7.275L9.487,22.975a1.592,1.592,0,0,1-2.253,0L.475,16.216a1.593,1.593,0,0,1,0-2.253L10.584,3.855a15.064,15.064,0,0,1,3.875-.065c-.011.13-.039.252-.039.385a13.77,13.77,0,0,0,.229,1.973,1.913,1.913,0,1,0,2.675-.5,11.66,11.66,0,0,1-.183-1.475c0-.062.013-.119.018-.18.242.025.481.052.706.08C19.2,4.239,19.215,4.236,19.378,5.591ZM13.99,13.156a4.358,4.358,0,0,0-.985-1.562l.767-.768-.854-.853-.828.829a2.262,2.262,0,0,0-3.026.078c-.845.845-.646,1.918-.025,3.165.426.863.5,1.36.173,1.691s-.889.192-1.387-.3A4.351,4.351,0,0,1,6.763,13.6l-1.282.76A5,5,0,0,0,6.6,16.207l-.836.837.853.854.9-.9a2.343,2.343,0,0,0,3.156-.052c.794-.8.863-1.684.183-3.1-.472-1.012-.585-1.509-.306-1.787.245-.245.68-.315,1.247.252a3.834,3.834,0,0,1,.95,1.562Z"/></g></svg>