<svg xmlns="http://www.w3.org/2000/svg" width="13.664" height="13.674" viewBox="0 0 13.664 13.674"><defs><style>.a{fill:#39b54a;}</style></defs><g transform="translate(-0.008)"><path class="a" d="M13.673,2.623a7.584,7.584,0,0,1-.944,3.65.406.406,0,0,1-.694-.422,6.876,6.876,0,0,0,.826-3.228A1.668,1.668,0,0,0,11.238.811,1.625,1.625,0,0,0,9.615,2.435a12.835,12.835,0,0,0,.256,1.692.406.406,0,0,1-.795.166A13.34,13.34,0,0,1,8.8,2.435,2.438,2.438,0,0,1,11.238,0,2.478,2.478,0,0,1,13.673,2.623Zm-2.366.638c.161,1.348.4,3.976.126,4.244l-5.9,5.9a.929.929,0,0,1-1.314,0L.281,9.459a.929.929,0,0,1,0-1.314l5.9-5.9a8.787,8.787,0,0,1,2.26-.038c-.006.076-.023.147-.023.224a8.032,8.032,0,0,0,.133,1.151A1.116,1.116,0,1,0,10.109,3.3,6.8,6.8,0,0,1,10,2.435c0-.036.007-.069.011-.1.141.015.28.03.412.047C11.2,2.473,11.212,2.471,11.307,3.261ZM8.164,7.674a2.542,2.542,0,0,0-.574-.911l.448-.448-.5-.5L7.056,6.3a1.319,1.319,0,0,0-1.765.045c-.493.493-.377,1.119-.015,1.846.249.5.294.793.1.987S4.859,9.291,4.568,9a2.538,2.538,0,0,1-.62-1.069L3.2,8.376a2.915,2.915,0,0,0,.651,1.078l-.488.488.5.5.524-.524a1.367,1.367,0,0,0,1.841-.03c.463-.464.5-.982.107-1.806-.275-.59-.341-.88-.178-1.043.143-.143.4-.184.727.147a2.236,2.236,0,0,1,.554.911Z" transform="translate(0)"/></g></svg>