<svg xmlns="http://www.w3.org/2000/svg" width="43.486" height="54.845" viewBox="0 0 43.486 54.845"><defs><style>.a{fill:#39b54a;}</style></defs><g transform="translate(-53.02)"><g transform="translate(53.02)"><g transform="translate(0)"><path class="a" d="M96.48,45.228,94.031,14.365A3.857,3.857,0,0,0,90.2,10.819H85.365V10.6a10.6,10.6,0,1,0-21.2,0v.217H59.324A3.856,3.856,0,0,0,55.5,14.361l-2.45,30.871a8.93,8.93,0,0,0,8.9,9.613H87.576a8.93,8.93,0,0,0,8.9-9.617ZM67.374,10.6a7.389,7.389,0,0,1,14.778,0v.217H67.374Zm24.4,39.2a5.659,5.659,0,0,1-4.195,1.832H61.95a5.717,5.717,0,0,1-5.7-6.151L58.7,14.611a.63.63,0,0,1,.625-.579h4.838v3.956a1.606,1.606,0,1,0,3.213,0V14.031H82.152v3.956a1.606,1.606,0,1,0,3.213,0V14.031H90.2a.631.631,0,0,1,.626.583l2.449,30.863A5.659,5.659,0,0,1,91.771,49.8Z" transform="translate(-53.02)"/></g></g><g transform="translate(67.056 26.768)"><path class="a" d="M199,250.363a1.606,1.606,0,0,0-2.271,0l-7.172,7.172-2.758-2.758a1.606,1.606,0,0,0-2.272,2.272l3.894,3.894a1.606,1.606,0,0,0,2.271,0L199,252.635A1.606,1.606,0,0,0,199,250.363Z" transform="translate(-184.052 -249.893)"/></g></g></svg>