<svg xmlns="http://www.w3.org/2000/svg" xmlns:xlink="http://www.w3.org/1999/xlink" width="90.999" height="90.833" viewBox="0 0 90.999 90.833"><defs><style>.a{fill:url(#a);}.b{fill:url(#b);}.c{fill:url(#e);}.d{fill:url(#f);}.e{fill:#fff;}.f{fill:url(#g);}.g{fill:url(#h);}.h{filter:url(#c);}</style><linearGradient id="a" x1="0.395" y1="0.156" x2="1.126" y2="-0.576" gradientUnits="objectBoundingBox"><stop offset="0" stop-color="#a7f3ce"/><stop offset="1" stop-color="#61db99"/></linearGradient><linearGradient id="b" x1="0.634" y1="-0.084" x2="0.324" y2="0.227" gradientUnits="objectBoundingBox"><stop offset="0" stop-color="#61db99" stop-opacity="0"/><stop offset="1" stop-color="#39b54a"/></linearGradient><filter id="c" x="18.866" y="18.7" width="72.133" height="72.133" filterUnits="userSpaceOnUse"><feOffset dy="3" input="SourceAlpha"/><feGaussianBlur stdDeviation="3" result="d"/><feFlood flood-opacity="0.161"/><feComposite operator="in" in2="d"/><feComposite in="SourceGraphic"/></filter><linearGradient id="e" x1="0.316" y1="0.784" x2="0.949" y2="0.15" gradientUnits="objectBoundingBox"><stop offset="0" stop-color="#62e1fb"/><stop offset="1" stop-color="#3e90c7"/></linearGradient><linearGradient id="f" x1="0.761" y1="0.176" x2="-0.265" y2="1.201" gradientUnits="objectBoundingBox"><stop offset="0" stop-color="#00a2f3" stop-opacity="0"/><stop offset="1" stop-color="#0075cd"/></linearGradient><linearGradient id="g" x1="0.758" y1="0.176" x2="-0.267" y2="1.201" xlink:href="#f"/><linearGradient id="h" x1="0.756" y1="0.176" x2="-0.27" y2="1.201" xlink:href="#f"/></defs><g transform="translate(0 -9.884)"><path class="a" d="M200.64,164.116a27.087,27.087,0,0,1,26.853,32.917,49.085,49.085,0,0,0-1.222,10.569v6.878a1.908,1.908,0,0,1-1.908,1.908h-6.878a49.085,49.085,0,0,0-10.569,1.222,27.069,27.069,0,1,1-6.275-53.495Z" transform="translate(-146.13 -129.528)"/><g class="h" transform="matrix(1, 0, 0, 1, 0, 9.88)"><path class="b" d="M200.64,164.116a27.087,27.087,0,0,1,26.853,32.917,49.085,49.085,0,0,0-1.222,10.569v6.878a1.908,1.908,0,0,1-1.908,1.908h-6.878a49.085,49.085,0,0,0-10.569,1.222,27.069,27.069,0,1,1-6.275-53.495Z" transform="translate(-146.13 -139.41)"/></g><path class="c" d="M33.488,9.888A33,33,0,0,0,.773,49.989,59.805,59.805,0,0,1,2.262,62.866v8.38A2.325,2.325,0,0,0,4.587,73.57h8.38a59.808,59.808,0,0,1,12.876,1.489A32.977,32.977,0,1,0,33.488,9.888Z" transform="translate(0)"/><path class="d" d="M85.92,196.289a5.1,5.1,0,1,0-7.213,7.213L89.725,214.52a5.1,5.1,0,1,0,7.213-7.213Z" transform="translate(-64.749 -155.198)"/><circle class="e" cx="5.107" cy="5.107" r="5.107" transform="translate(12.347 39.479)"/><path class="f" d="M176.11,196.289A5.1,5.1,0,1,0,168.9,203.5l11.018,11.018a5.1,5.1,0,1,0,7.213-7.213Z" transform="translate(-140.495 -155.198)"/><circle class="e" cx="5.107" cy="5.107" r="5.107" transform="translate(26.791 39.479)"/><path class="g" d="M266.3,196.289a5.1,5.1,0,1,0-7.213,7.213L270.1,214.52a5.1,5.1,0,1,0,7.213-7.213Z" transform="translate(-216.24 -155.198)"/><circle class="e" cx="5.107" cy="5.107" r="5.107" transform="translate(41.236 39.479)"/></g></svg>