<svg xmlns="http://www.w3.org/2000/svg" width="16" height="16" viewBox="0 0 16 16"><g transform="translate(3 3)"><path d="M102.5,96h-6a.5.5,0,1,0,0,1h6a.5.5,0,0,0,0-1Z" transform="translate(-96 -96)"/></g><g transform="translate(3 5)"><path d="M100.5,160h-4a.5.5,0,0,0,0,1h4a.5.5,0,0,0,0-1Z" transform="translate(-96 -160)"/></g><path d="M11,0H2A2,2,0,0,0,0,2V12a.5.5,0,0,0,.288.453A.507.507,0,0,0,.5,12.5a.5.5,0,0,0,.32-.116L3.681,10H11a2,2,0,0,0,2-2V2A2,2,0,0,0,11,0Zm1,8a1,1,0,0,1-1,1H3.5a.5.5,0,0,0-.32.116L1,10.933V2A1,1,0,0,1,2,1h9a1,1,0,0,1,1,1Z"/><g transform="translate(4 4)"><path d="M138,128a.5.5,0,0,0,0,1,1,1,0,0,1,1,1v8.459l-1.688-1.35A.5.5,0,0,0,137,137h-7a1,1,0,0,1-1-1v-.5a.5.5,0,0,0-1,0v.5a2,2,0,0,0,2,2h6.824l2.363,1.891A.5.5,0,0,0,140,139.5V130A2,2,0,0,0,138,128Z" transform="translate(-128 -128)"/></g></svg>