<svg xmlns="http://www.w3.org/2000/svg" width="14.939" height="15.006" viewBox="0 0 14.939 15.006"><path d="M12.921,36.351a1.567,1.567,0,0,0-1.136-.521,1.62,1.62,0,0,0-1.15.518L9.572,37.407c-.087-.047-.175-.091-.259-.134-.121-.061-.235-.118-.333-.178a11.545,11.545,0,0,1-2.767-2.521,6.811,6.811,0,0,1-.908-1.432c.276-.252.531-.514.78-.766.094-.094.188-.192.282-.286a1.542,1.542,0,0,0,0-2.326l-.918-.918c-.1-.1-.212-.212-.313-.319-.2-.208-.413-.424-.632-.625a1.591,1.591,0,0,0-1.126-.494,1.647,1.647,0,0,0-1.143.494l-.007.007L1.088,29.06a2.459,2.459,0,0,0-.729,1.563,5.893,5.893,0,0,0,.43,2.494A14.474,14.474,0,0,0,3.36,37.407a15.819,15.819,0,0,0,5.268,4.125,8.207,8.207,0,0,0,2.958.874c.071,0,.145.007.212.007a2.533,2.533,0,0,0,1.94-.834c0-.007.01-.01.013-.017a7.641,7.641,0,0,1,.588-.608c.145-.138.292-.282.437-.434a1.677,1.677,0,0,0,.508-1.163,1.616,1.616,0,0,0-.518-1.153Zm1.2,3.54s0,0,0,0c-.131.141-.266.269-.41.41a8.838,8.838,0,0,0-.649.672,1.621,1.621,0,0,1-1.264.534c-.05,0-.1,0-.155,0a7.291,7.291,0,0,1-2.622-.787,14.932,14.932,0,0,1-4.962-3.886A13.647,13.647,0,0,1,1.642,32.8a4.8,4.8,0,0,1-.376-2.1,1.543,1.543,0,0,1,.464-1l1.146-1.146a.764.764,0,0,1,.511-.239.719.719,0,0,1,.491.235l.01.01c.205.192.4.39.605.6.1.108.212.215.319.326l.918.918a.642.642,0,0,1,0,1.042c-.1.1-.192.195-.289.289-.282.289-.551.558-.844.82-.007.007-.013.01-.017.017a.686.686,0,0,0-.175.763l.01.03A7.368,7.368,0,0,0,5.5,35.138l0,0A12.338,12.338,0,0,0,8.49,37.857a4.59,4.59,0,0,0,.413.225c.121.061.235.118.333.178.013.007.027.017.04.024a.729.729,0,0,0,.333.084.719.719,0,0,0,.511-.232l1.15-1.15a.76.76,0,0,1,.508-.252.685.685,0,0,1,.484.245l.007.007,1.852,1.852A.665.665,0,0,1,14.124,39.891Z" transform="translate(-0.344 -27.406)"/></svg>