<svg xmlns="http://www.w3.org/2000/svg" width="12" height="18" viewBox="0 0 12 18"><g transform="translate(-85.333)"><g transform="translate(85.333)"><g transform="translate(0)"><path d="M91.333,0a6,6,0,0,0-5.28,8.851L91,17.807a.375.375,0,0,0,.656,0l4.953-8.958A6,6,0,0,0,91.333,0Zm4.623,8.488L91.333,16.85,86.711,8.492a5.25,5.25,0,1,1,9.245,0Z" transform="translate(-85.333)"/><path d="M173.667,85.333a3,3,0,1,0,3,3A3,3,0,0,0,173.667,85.333Zm0,5.25a2.25,2.25,0,1,1,2.25-2.25A2.252,2.252,0,0,1,173.667,90.583Z" transform="translate(-167.667 -82.333)"/></g></g></g></svg>