<svg xmlns="http://www.w3.org/2000/svg" width="38.414" height="42.306" viewBox="0 0 38.414 42.306"><defs><style>.a{fill:#32bbff;}.b{fill:#2c9fd9;}.c{fill:#29cc5e;}.d{fill:#d93f21;}.e{fill:#ffd500;}.f{fill:#fa0;}</style></defs><g transform="translate(0 0.001)"><path class="a" d="M75.594,14.523C70.679,11.774,62.791,7.36,50.556.509A2.95,2.95,0,0,0,47.962.171L68.954,21.162Z" transform="translate(-45.945 -0.012)"/><path class="a" d="M25.566,1.93a3.016,3.016,0,0,0-.446.191,2.952,2.952,0,0,0-1.571,2.624V41.1a2.951,2.951,0,0,0,1.571,2.624,3.053,3.053,0,0,0,.446.191L46.558,22.922Z" transform="translate(-23.549 -1.772)"/><path class="a" d="M68.948,255.98,47.956,276.972a2.919,2.919,0,0,0,2.594-.339c11.865-6.644,19.665-11.006,24.636-13.778l.408-.229Z" transform="translate(-45.939 -234.83)"/></g><path class="b" d="M23.549,255.98v18.177a2.951,2.951,0,0,0,1.571,2.624,3.051,3.051,0,0,0,.446.191L46.558,255.98Z" transform="translate(-23.549 -234.829)"/><path class="c" d="M45.6.5A2.959,2.959,0,0,0,42.561.35l21.12,21.12,6.958-6.958C65.724,11.763,57.836,7.349,45.6.5Z" transform="translate(-40.99 0)"/><path class="d" d="M63.681,252.126l-21.12,21.12a2.939,2.939,0,0,0,3.04-.148c11.865-6.644,19.665-11.006,24.636-13.778l.408-.229Z" transform="translate(-40.99 -231.293)"/><path class="e" d="M310.345,179.725a2.944,2.944,0,0,0-1.516-2.587s-1.884-1.051-7.658-4.281l-6.868,6.868,6.875,6.875c5.711-3.207,7.651-4.288,7.651-4.288A2.944,2.944,0,0,0,310.345,179.725Z" transform="translate(-271.931 -158.574)"/><path class="f" d="M308.83,258.567a2.944,2.944,0,0,0,1.516-2.587H294.3l6.875,6.875C306.889,259.649,308.83,258.567,308.83,258.567Z" transform="translate(-271.931 -234.829)"/></svg>